{"title":"Fort Bliss 2014 R4 DVDRIP XVID AC3 ACAB","uid":11019036,"size":1580515038,"categoryP":"video","categoryS":"movies","magnet":"?xt=urn:btih:4cfa19d6609572148100619a4b965f805247f2f9&amp;dn=Fort+Bliss+2014+R4+DVDRIP+XVID+AC3+ACAB&amp;tr=udp%3A%2F%2Ftracker.openbittorrent.com%3A80&amp;tr=udp%3A%2F%2Fopen.demonii.com%3A1337&amp;tr=udp%3A%2F%2Ftracker.coppersurfer.tk%3A6969&amp;tr=udp%3A%2F%2Fexodus.desync.com%3A6969","seeders":1,"leechers":1,"uploader":"ali1997a","files":4,"time":1410542526,"description":"SilverTorrent - Clean And Verified Torrents Download\n &lt;a href=&quot;\nhttp://i.imgur.com/ky6BGho.png&quot; rel=&quot;nofollow&quot; target=&quot;_NEW&quot;&gt;\nhttp://i.imgur.com/ky6BGho.png&lt;/a&gt;\n &lt;a href=&quot;\nhttp://i.imgur.com/oDonQeM.jpg&quot; rel=&quot;nofollow&quot; target=&quot;_NEW&quot;&gt;\nhttp://i.imgur.com/oDonQeM.jpg&lt;/a&gt;\n\nFort Bliss 2014 R4 DVDRIP XVID AC3 ACAB\n\niMDB:http://www.imdb.com/title/tt2093995/\n\nFormat                                   : AVI\nFormat/Info                              : Audio Video Interleave\nFile size                                : 1.45 GiB\nDuration                                 : 1h 55mn\nOverall bit rate                         : 1 792 Kbps\nWriting library                          : VirtualDub build 30091/release\n\nVideo\nID                                       : 0\nFormat                                   : MPEG-4 Visual\nFormat profile                           : Advanced Simple@L5\nFormat settings, BVOP                    : 1\nFormat settings, QPel                    : No\nFormat settings, GMC                     : No warppoints\nFormat settings, Matrix                  : Default (H.263)\nMuxing mode                              : Packed bitstream\nCodec ID                                 : XVID\nCodec ID/Hint                            : XviD\nDuration                                 : 1h 55mn\nBit rate                                 : 1 399 Kbps\nWidth                                    : 720 pixels\nHeight                                   : 400 pixels\nDisplay aspect ratio                     : 16:9\nFrame rate                               : 23.976 fps\nColor space                              : YUV\nChroma subsampling                       : 4:2:0\nBit depth                                : 8 bits\nScan type                                : Progressive\nCompression mode                         : Lossy\nBits/(Pixel*Frame)                       : 0.203\nStream size                              : 1.13 GiB (78%)\nWriting library                          : XviD 1.2.1 (UTC 2008-12-04)\n\nAudio\nID                                       : 1\nFormat                                   : AC-3\nFormat/Info                              : Audio Coding 3\nMode extension                           : CM (complete main)\nFormat settings, Endianness              : Big\nCodec ID                                 : 2000\nDuration                                 : 1h 55mn\nBit rate mode                            : Constant\nBit rate                                 : 384 Kbps\nChannel(s)                               : 6 channels\nChannel positions                        : Front: L C R, Side: L R, LFE\nSampling rate                            : 48.0 KHz\nBit depth                                : 16 bits\nCompression mode                         : Lossy\nStream size                              : 318 MiB (21%)\n &lt;a href=&quot;\nhttp://i.imgur.com/19w6fga.png&quot; rel=&quot;nofollow&quot; target=&quot;_NEW&quot;&gt;\nhttp://i.imgur.com/19w6fga.png&lt;/a&gt;\n &lt;a href=&quot;\nhttp://i.imgur.com/1KX7GBP.png&quot; rel=&quot;nofollow&quot; target=&quot;_NEW&quot;&gt;\nhttp://i.imgur.com/1KX7GBP.png&lt;/a&gt;\n &lt;a href=&quot;\nhttp://i.imgur.com/y5yZkXS.png&quot; rel=&quot;nofollow&quot; target=&quot;_NEW&quot;&gt;\nhttp://i.imgur.com/y5yZkXS.png&lt;/a&gt;\n &lt;a href=&quot;\nhttp://i.imgur.com/NV2SDZA.png&quot; rel=&quot;nofollow&quot; target=&quot;_NEW&quot;&gt;\nhttp://i.imgur.com/NV2SDZA.png&lt;/a&gt;","torrent":{"xt":"urn:btih:4cfa19d6609572148100619a4b965f805247f2f9","amp;dn":"Fort+Bliss+2014+R4+DVDRIP+XVID+AC3+ACAB","amp;tr":["udp%3A%2F%2Ftracker.openbittorrent.com%3A80","udp%3A%2F%2Fopen.demonii.com%3A1337","udp%3A%2F%2Ftracker.coppersurfer.tk%3A6969","udp%3A%2F%2Fexodus.desync.com%3A6969"],"infoHash":"4cfa19d6609572148100619a4b965f805247f2f9","infoHashBuffer":{"type":"Buffer","data":[76,250,25,214,96,149,114,20,129,0,97,154,75,150,95,128,82,71,242,249]},"announce":[],"urlList":[]}}